# xmcd
#
# Track frame offsets: 
#        222
#        18707
#        31575
#        42657
#        53550
#        73232
#        84935
#        95375
#        109462
#        131975
#        149700
#        167057
#        179400
#        188832
#        200600
#        213600
#        226392
#        245855
#        270772
#
# Disc length: 3739 seconds
#
# Revision: 4
# Processed by: cddbd v1.5.2PL0 Copyright (c) Steve Scherf et al.
# Submitted via: ExactAudioCopy v0.95b4
#
DISCID=210e9913
DTITLE=Various Artist - Planete Blues
DYEAR=1993
DGENRE=Blues
TTITLE0=John Lee Hooker - Della Mae
TTITLE1=T Bone Walker - Stormy Monday Blues
TTITLE2=Bo Diddley - Diddy Wah Diddy
TTITLE3=Muddy Waters - Key To The Highway
TTITLE4=Howlin' Wolf - Wang Dang Doodle
TTITLE5=Willie Dixon and Memphis Slim - Crazy For My Baby
TTITLE6=Canned Heat - Dimple
TTITLE7=Bo Diddley - You Can't Judge A Book By The Cover
TTITLE8=Sonny Boy Williamson and The Animals - Boom Boom
TTITLE9=Muddy Waters - Manish Boy
TTITLE10=Howlin' Wolf - Red Rooster
TTITLE11=Johnny Winter - Good Morning Little School Girl
TTITLE12=Canned Heat - Rollin' and Tumblin'
TTITLE13=Yardbirds - I'm A Man
TTITLE14=Fleetwood Mac - Black Magic Woman
TTITLE15=Muddy Waters - Hoochie Coochie Man
TTITLE16=Yardbirds - New York City
TTITLE17=Screamin' Jay Hawkins - Constipation Blues
TTITLE18=Chuck Berry - Worried Life Blues
EXTD=YEAR: 1993
EXTT0=
EXTT1=
EXTT2=
EXTT3=
EXTT4=
EXTT5=
EXTT6=
EXTT7=
EXTT8=
EXTT9=
EXTT10=
EXTT11=
EXTT12=
EXTT13=
EXTT14=
EXTT15=
EXTT16=
EXTT17=
EXTT18=
PLAYORDER=
